<?xml version="1.0" encoding="UTF-8" standalone="no"?>
<svg
   height="271.45999"
   viewBox="0 0 1298.45 271.46"
   width="1298.45"
   version="1.1"
   id="svg75"
   sodipodi:docname="logo.svg"
   inkscape:version="1.1.2 (1:1.1+202202050950+0a00cf5339)"
   xmlns:inkscape="http://www.inkscape.org/namespaces/inkscape"
   xmlns:sodipodi="http://sodipodi.sourceforge.net/DTD/sodipodi-0.dtd"
   xmlns="http://www.w3.org/2000/svg"
   xmlns:svg="http://www.w3.org/2000/svg">
  <defs
     id="defs79">
    <rect
       x="379.3178"
       y="346.13214"
       width="981.22371"
       height="340.56033"
       id="rect73535" />
    <rect
       x="441.23316"
       y="-87.442605"
       width="848.57853"
       height="399.88173"
       id="rect5261" />
  </defs>
  <sodipodi:namedview
     id="namedview77"
     pagecolor="#aaaaaa"
     bordercolor="#666666"
     borderopacity="1.0"
     inkscape:pageshadow="2"
     inkscape:pageopacity="0.4"
     inkscape:pagecheckerboard="true"
     showgrid="false"
     borderlayer="false"
     inkscape:showpageshadow="false"
     inkscape:zoom="0.62959685"
     inkscape:cx="630.56224"
     inkscape:cy="216.8054"
     inkscape:window-width="1848"
     inkscape:window-height="1016"
     inkscape:window-x="72"
     inkscape:window-y="27"
     inkscape:window-maximized="1"
     inkscape:current-layer="svg75" />
  <path
     d="m 358.84,8.529998 h 3 V 243.53 h -3 z"
     id="path660"
     style="fill:#ffffff" />
  <style
     type="text/css"
     id="style68101">
	.st0{fill:#FFFFFF;}
	.st1{fill:#3A79FB;}
	.st2{fill:#397AFA;}
	.st3{fill:#71DDBC;}
</style>
  <g
     id="g68113"
     transform="translate(63.952443,314.26624)">
    <g
       id="g68111"
       transform="matrix(2.4287537,0,0,2.4287537,-200.57527,-475.58192)">
      <path
         class="st2"
         d="M 73.5,143.1 V 98.6 c 0,-0.9 0.5,-1.7 1.2,-2.1 l 40.2,-24.7 c 0.7,-0.4 1.6,-0.5 2.4,-0.1 l 9.9,4.6 c 0.9,0.4 1.5,1.3 1.5,2.3 v 34.1 c 0,1.8 -1.9,3.1 -3.6,2.3 l -21.9,-10.2 c -1.7,-0.8 -3.6,0.4 -3.6,2.3 V 154 c 0,1.9 -2,3.1 -3.7,2.2 L 74.8,145.3 C 74,144.9 73.5,144 73.5,143.1 Z"
         id="path68107" />
      <path
         class="st3"
         d="M 167.3,96.5 V 141 c 0,0.9 -0.5,1.7 -1.2,2.1 l -40.2,24.7 c -0.7,0.4 -1.6,0.5 -2.4,0.1 l -9.9,-4.6 c -0.9,-0.4 -1.5,-1.3 -1.5,-2.3 v -34.1 c 0,-1.8 1.9,-3.1 3.6,-2.3 l 21.9,10.2 c 1.7,0.8 3.6,-0.4 3.6,-2.3 v -47 c 0,-1.9 2,-3.1 3.7,-2.2 L 166,94.2 c 0.8,0.5 1.3,1.3 1.3,2.3 z"
         id="path68109" />
    </g>
  </g>
  <text
     xml:space="preserve"
     id="text73533"
     style="font-style:normal;font-variant:normal;font-weight:normal;font-stretch:normal;font-size:112px;line-height:1.25;font-family:sans-serif;-inkscape-font-specification:'sans-serif, Normal';font-variant-ligatures:normal;font-variant-caps:normal;font-variant-numeric:normal;font-variant-east-asian:normal;white-space:pre;shape-inside:url(#rect73535);fill:#000000;fill-opacity:1;stroke:none"
     transform="translate(53.544162,-360.57414)"><tspan
       x="379.31836"
       y="458.69281"
       id="tspan1861"><tspan
         style="fill:#ffffff"
         id="tspan1859">Decred-Next
</tspan></tspan><tspan
       x="379.31836"
       y="598.69281"
       id="tspan1865"><tspan
         style="fill:#ffffff"
         id="tspan1863">Block Explorer</tspan></tspan></text>
</svg>
